<svg width="20" height="18" viewBox="0 0 20 18" fill="none" xmlns="http://www.w3.org/2000/svg">
<path d="M18.6667 9.92008H2.66667V3.18681C2.66589 2.93324 2.72115 2.68205 2.82924 2.44778C2.93733 2.21351 3.09611 2.00082 3.29638 1.82201L3.31304 1.80705C3.6269 1.52569 4.02986 1.33818 4.46688 1.27015C4.9039 1.20211 5.35365 1.25686 5.75471 1.42692C5.37595 1.99229 5.21851 2.65508 5.30743 3.30998C5.39635 3.96488 5.72651 4.57432 6.24546 5.04145L6.70175 5.45109L5.86188 6.20515L6.80463 7.05152L7.6445 6.2975L12.2982 2.11962L13.1381 1.36561L12.1953 0.519199L11.3554 1.27321L10.8991 0.863568C10.3528 0.374482 9.63264 0.0729918 8.86416 0.0116347C8.09568 -0.0497224 7.32758 0.132944 6.69371 0.527802C6.0253 0.148837 5.23319 -0.0147657 4.44752 0.0638713C3.66185 0.142508 2.92932 0.458708 2.37029 0.960527L2.35363 0.97549C2.02914 1.26521 1.77189 1.60982 1.59676 1.9894C1.42162 2.36897 1.33209 2.77596 1.33333 3.18681V9.92008H0V11.1171H1.33333V12.2655C1.3333 12.362 1.35064 12.4579 1.38467 12.5494L2.625 15.8898C2.69119 16.0687 2.81847 16.2242 2.98875 16.3344C3.15904 16.4446 3.36367 16.5039 3.57358 16.5037H4.11108L3.625 18H5.01388L5.5 16.5037H14.1708L14.6708 18H16.0625L15.5625 16.5037H16.4263C16.6362 16.5039 16.8409 16.4447 17.0112 16.3345C17.1815 16.2243 17.3088 16.0687 17.375 15.8898L18.6152 12.5494C18.6493 12.4579 18.6666 12.362 18.6667 12.2655V11.1171H20V9.92008H18.6667ZM7.18833 1.70998C7.55566 1.38092 8.05339 1.19611 8.57231 1.19611C9.09123 1.19611 9.58896 1.38092 9.95629 1.70998L10.4125 2.11962L7.64462 4.60454L7.18833 4.19497C6.82182 3.86518 6.61599 3.41834 6.61599 2.95247C6.61599 2.48661 6.82182 2.03977 7.18833 1.70998ZM17.3333 12.2169L16.1862 15.3067H3.81383L2.66667 12.2169V11.1171H17.3333V12.2169Z" fill="#454545"/>
</svg>
