<svg width="26" height="20" viewBox="0 0 26 20" fill="none" xmlns="http://www.w3.org/2000/svg">
<path d="M2.77997 8.84134H22.5967C24.1312 8.84334 25.3746 10.0957 25.3766 11.6411V16.6603H9.9127e-05V11.6645C4.95635e-05 11.6576 0 11.6494 0 11.6413C0 10.0949 1.24459 8.84132 2.77989 8.84132H2.77999L2.77997 8.84134ZM24.2231 15.4985V11.6413C24.2218 10.7371 23.4944 10.0045 22.5968 10.0031H2.77997H2.77987C1.88163 10.0031 1.15344 10.7366 1.15344 11.6413C1.15344 11.6474 1.15349 11.6535 1.15357 11.6597V11.6587V15.4985L24.2231 15.4985ZM3.87577 0H21.5009C23.0354 0.00199685 24.2788 1.25437 24.2808 2.79976V10.0032H1.0959V2.79996C1.09788 1.2544 2.34128 0.00199685 3.87559 0H3.87577ZM23.1273 8.84132V2.79999C23.126 1.89579 22.3986 1.16317 21.501 1.16182H3.87572C2.978 1.16317 2.25063 1.89579 2.24929 2.79986V8.84134L23.1273 8.84132ZM7.18621 4.4265H10.4852C12.0196 4.4285 13.2631 5.68087 13.2651 7.22626V10.0032H4.40634V7.22644C4.40833 5.68087 5.65175 4.42847 7.18606 4.42648H7.18626L7.18621 4.4265ZM12.1116 8.84137V7.22644C12.1103 6.32224 11.3829 5.58962 10.4853 5.58827H7.18621C6.28852 5.58962 5.56115 6.32224 5.55984 7.22631V8.84134L12.1116 8.84137ZM14.8915 4.4265H18.1904C19.7249 4.4285 20.9683 5.68087 20.9703 7.22626V10.0032H12.1116V7.22644C12.1136 5.68087 13.357 4.42847 14.8913 4.42648H14.8915L14.8915 4.4265ZM19.8169 8.84137V7.22644C19.8155 6.32224 19.0881 5.58962 18.1906 5.58827H14.8915C13.9938 5.58962 13.2664 6.32224 13.2651 7.22631V8.84134L19.8169 8.84137ZM2.24934 19.4254H1.0959V16.1027H2.24937L2.24934 19.4254ZM24.2808 19.4254H23.1273V16.1027H24.2808L24.2808 19.4254Z" fill="#454545"/>
</svg>
